<?xml version="1.0" standalone="no"?>
<!DOCTYPE svg PUBLIC "-//W3C//DTD SVG 1.1//EN" "http://www.w3.org/Graphics/SVG/1.1/DTD/svg11.dtd" >
<svg xmlns="http://www.w3.org/2000/svg" version="1.1" xmlns:xlink="http://www.w3.org/1999/xlink" width="512" height="512" x="0" y="0" viewBox="0 0 74 74" style="enable-background:new 0 0 512 512" xml:space="preserve" class=""><g><path d="M67.751 60.354H6.249A4.254 4.254 0 0 1 2 56.105V16.756a4.253 4.253 0 0 1 4.249-4.248h61.5A4.253 4.253 0 0 1 72 16.756v39.349a4.254 4.254 0 0 1-4.249 4.249zM6.249 14.508A2.251 2.251 0 0 0 4 16.756v39.349a2.252 2.252 0 0 0 2.249 2.249h61.5A2.252 2.252 0 0 0 70 56.105V16.756a2.251 2.251 0 0 0-2.249-2.248z" fill="#ff8c38" opacity="1" data-original="#000000"></path><path d="M37 39.132a4.6 4.6 0 0 1-2.769-.92L3.53 15.1a1 1 0 0 1 1.2-1.6l30.7 23.113a2.616 2.616 0 0 0 3.132 0L69.267 13.5a1 1 0 0 1 1.2 1.6l-30.7 23.113a4.6 4.6 0 0 1-2.767.919z" fill="#ff8c38" opacity="1" data-original="#000000"></path><path d="M3.684 59.093a1 1 0 0 1-.647-1.763l27.58-23.367a1 1 0 1 1 1.293 1.526L4.33 58.856a.993.993 0 0 1-.646.237zM70.316 59.093a.993.993 0 0 1-.646-.237L42.09 35.489a1 1 0 1 1 1.293-1.526l27.58 23.367a1 1 0 0 1-.647 1.763z" fill="#ff8c38" opacity="1" data-original="#000000"></path></g></svg>