<?xml version="1.0" standalone="no"?>
<!DOCTYPE svg PUBLIC "-//W3C//DTD SVG 1.1//EN" "http://www.w3.org/Graphics/SVG/1.1/DTD/svg11.dtd" >
<svg xmlns="http://www.w3.org/2000/svg" version="1.1" xmlns:xlink="http://www.w3.org/1999/xlink" width="512" height="512" x="0" y="0" viewBox="0 0 64 64" style="enable-background:new 0 0 512 512" xml:space="preserve" class=""><g><path d="M2 63c-.3 0-.5-.1-.7-.3-.3-.3-.4-.7-.2-1l4.5-13.6C2.6 43.3 1 37.7 1 32 1 14.9 14.9 1 32 1s31 13.9 31 31-13.9 31-31 31c-5.7 0-11.3-1.6-16.1-4.5L2.3 62.9c-.1.1-.2.1-.3.1zm14-6.6c.2 0 .4.1.5.2 4.6 2.9 10 4.5 15.5 4.5 16 0 29-13 29-29S48 3 32 3 3 16 3 32c0 5.5 1.6 10.9 4.5 15.5.2.3.2.6.1.8 0 .1-.1.2-.2.3L3.6 60.4l12.1-4z" fill="#ff8c38" opacity="1" data-original="#000000" class=""></path><path d="M40 47.3c-2.7 0-6.1-.9-10-2.7-5.4-2.5-9.8-6.4-12.7-11.3-1.7-2.8-2.6-5.4-2.7-7.8 0-.1-.5-4.7 3.9-8.2.5-.4 1.1-.6 1.8-.6h1.8c1.1 0 2.2.7 2.6 1.7l2.7 6.6c.4 1 .2 2.2-.5 3l-1.7 1.9c-.2.3-.3.7-.1 1 .1.1.2.4.6.9 2 2.6 4.7 4.7 7.7 6 .5.2.8.3 1 .4.3.1.7 0 .9-.3l1.4-2.1c.6-.9 1.7-1.4 2.8-1.2l7.1 1.1c1.1.2 2 1 2.3 2.1l.4 1.8c.2.6.1 1.3-.2 1.9-2.4 5.2-6.9 5.8-7.1 5.8-.6-.1-1.3 0-2 0zM20.3 18.7c-.2 0-.4.1-.5.2-3.6 2.9-3.2 6.5-3.2 6.5.1 2.1.9 4.4 2.4 6.9 2.7 4.5 6.8 8.2 11.8 10.5 4.5 2.1 8.2 2.9 10.9 2.4.2 0 3.7-.6 5.6-4.7.1-.2.1-.4 0-.5l-.3-1.8c-.1-.3-.3-.6-.7-.6l-7.1-1.1c-.3 0-.6.1-.8.4L37 39c-.7 1-1.9 1.5-3.1 1.2-.3-.1-.7-.2-1.3-.5-3.3-1.5-6.3-3.8-8.5-6.7-.4-.5-.6-.8-.8-1.1-.6-1.1-.4-2.4.4-3.3l1.7-1.9c.2-.2.3-.6.2-.9l-2.7-6.6c-.1-.3-.4-.5-.8-.5z" fill="#ff8c38" opacity="1" data-original="#000000" class=""></path></g></svg>