<?xml version="1.0" standalone="no"?>
<svg xmlns="http://www.w3.org/2000/svg" version="1.1" xmlns:xlink="http://www.w3.org/1999/xlink" width="512" height="512" x="0" y="0" viewBox="0 0 64 64" style="enable-background:new 0 0 512 512" xml:space="preserve" class=""><g><path d="M32.095 52.99c-7.598.001-14.88-4.18-18.561-10.981-4.708-8.697-2.646-19.653 4.906-26.049 7.501-6.354 18.601-6.598 26.395-.583a1 1 0 1 1-1.223 1.583c-7.051-5.443-17.094-5.223-23.879.526-6.833 5.788-8.701 15.702-4.44 23.571 3.889 7.184 12.216 11.132 20.26 9.609C44.36 48.993 51.001 40.969 51.001 32a1 1 0 1 1 2 0c0 9.914-7.341 18.783-17.075 20.631a20.543 20.543 0 0 1-3.831.359z" fill="#ff8c38" opacity="1" data-original="#000000"></path><path d="M49.32 43a.995.995 0 0 1-.499-.134l-2.598-1.5a1 1 0 1 1 1-1.732l2.598 1.5A1 1 0 0 1 49.32 43zM17.277 24.5a.995.995 0 0 1-.499-.134l-2.598-1.5a1 1 0 1 1 1-1.732l2.598 1.5a1 1 0 0 1-.501 1.866zM22 50.32a1 1 0 0 1-.865-1.5l1.5-2.598a1 1 0 1 1 1.732 1l-1.5 2.598a.996.996 0 0 1-.867.5zM42.002 50.32a.998.998 0 0 1-.867-.5l-1.5-2.598a1 1 0 0 1 1.732-1l1.5 2.598a1 1 0 0 1-.865 1.5zM23.502 18.277a.998.998 0 0 1-.867-.5l-1.5-2.598a1 1 0 0 1 1.732-1l1.5 2.598a1 1 0 0 1-.865 1.5zM14.682 43a1 1 0 0 1-.501-1.866l2.598-1.5a1 1 0 1 1 1 1.732l-2.598 1.5a.997.997 0 0 1-.499.134zM32.001 53a1 1 0 0 1-1-1v-3a1 1 0 1 1 2 0v3a1 1 0 0 1-1 1zM32.001 16a1 1 0 0 1-1-1v-3a1 1 0 0 1 2 0v3a1 1 0 0 1-1 1zM15.001 33h-3a1 1 0 1 1 0-2h3a1 1 0 1 1 0 2zM39.126 39.089a1 1 0 0 1-1-1v-1.756h-4.874a1 1 0 0 1-1-1v-1.194c0-.2.06-.395.172-.561l5.568-8.228c.186-.274.496-.439.828-.439h.306a1 1 0 0 1 1 1v8.422h1.195a1 1 0 1 1 0 2h-1.195v1.756a1 1 0 0 1-1 1zm-4.797-4.756h3.797V28.72zM29.766 39.089h-7.085a1.001 1.001 0 0 1-.925-1.381c.745-1.811 2.134-3.047 3.478-4.242.927-.826 1.802-1.605 2.425-2.53.587-.872.759-1.927.449-2.755-.465-1.246-1.708-1.277-2.072-1.262-.869.045-1.868.555-2.139 1.595-.14.534-.687.854-1.22.716a1.002 1.002 0 0 1-.715-1.221c.457-1.748 2.052-2.988 3.971-3.088 1.857-.09 3.432.91 4.048 2.559.541 1.444.292 3.154-.663 4.573-.764 1.134-1.776 2.035-2.754 2.906-.785.699-1.542 1.373-2.135 2.13h5.337a1 1 0 1 1 0 2zM48.623 13.006a.999.999 0 0 1-.688-1.727l2.923-2.766a1.001 1.001 0 0 1 1.375 1.453l-2.923 2.766a.99.99 0 0 1-.687.274zM41.273 19.96a.999.999 0 0 1-.688-1.727l2.95-2.792a1.001 1.001 0 0 1 1.375 1.453l-2.95 2.792a.995.995 0 0 1-.687.274z" fill="#ff8c38" opacity="1" data-original="#000000"></path><path d="M32.029 58.991c-6.023 0-11.985-2.003-16.825-5.852-7.547-6-11.341-15.656-9.901-25.195C6.747 18.381 13.54 10.035 22.611 6.68c9.036-3.342 19.249-1.596 26.65 4.557a1 1 0 1 1-1.278 1.538C41.13 7.078 31.674 5.46 23.305 8.556 14.907 11.662 8.617 19.389 7.281 28.243c-1.333 8.834 2.179 17.774 9.168 23.333 6.963 5.536 16.44 6.949 24.733 3.683 6.077-2.393 11.073-7.204 13.708-13.201a25.036 25.036 0 0 0-.125-20.393 1 1 0 0 1 1.821-.827 27.038 27.038 0 0 1 .135 22.024c-2.846 6.477-8.243 11.673-14.807 14.258a26.989 26.989 0 0 1-9.885 1.871z" fill="#ff8c38" opacity="1" data-original="#000000"></path><path d="M41.272 19.96a1 1 0 0 1-.016-2l8.654-.138.638-8.655a.989.989 0 0 1 1.07-.924 1 1 0 0 1 .924 1.07l-.705 9.567a1 1 0 0 1-.981.927l-9.568.153h-.016z" fill="#ff8c38" opacity="1" data-original="#000000"></path></g></svg>