<?xml version="1.0" standalone="no"?>
<svg xmlns="http://www.w3.org/2000/svg" version="1.1" xmlns:xlink="http://www.w3.org/1999/xlink" width="512" height="512" x="0" y="0" viewBox="0 0 24 24" style="enable-background:new 0 0 512 512" xml:space="preserve" class=""><g><g fill="#000" fill-rule="evenodd" clip-rule="evenodd"><path d="M11.735 1.576a.5.5 0 0 1 .53 0l2.13 1.33a9.5 9.5 0 0 0 3.856 1.371l1.811.227A.5.5 0 0 1 20.5 5v6.457a10.5 10.5 0 0 1-4.935 8.904l-3.3 2.063a.5.5 0 0 1-.53 0l-3.3-2.063A10.5 10.5 0 0 1 3.5 11.457V5a.5.5 0 0 1 .438-.496l1.811-.227a9.5 9.5 0 0 0 3.857-1.37zM12 2.59l-1.864 1.165A10.5 10.5 0 0 1 5.873 5.27L4.5 5.44v6.017a9.5 9.5 0 0 0 4.465 8.055L12 21.41l3.035-1.897a9.5 9.5 0 0 0 4.465-8.056V5.442l-1.373-.171a10.5 10.5 0 0 1-4.263-1.515z" fill="#ff8c38" opacity="1" data-original="#000000"></path><path d="m15.854 9.354-4 4a.5.5 0 0 1-.707 0l-2-2 .707-.707 1.646 1.646 3.647-3.647z" fill="#ff8c38" opacity="1" data-original="#000000"></path></g></g></svg>